<svg xmlns="http://www.w3.org/2000/svg" version="1.1" xmlns:xlink="http://www.w3.org/1999/xlink" xmlns:svgjs="http://svgjs.dev/svgjs" width="1500" height="1500" viewBox="0 0 1500 1500"><g transform="matrix(1,0,0,1,-0.323615160350073,-0.3236151603499593)"><svg viewBox="0 0 343 343" data-background-color="#ffffff" preserveAspectRatio="xMidYMid meet" height="1500" width="1500" xmlns="http://www.w3.org/2000/svg" xmlns:xlink="http://www.w3.org/1999/xlink"><g id="tight-bounds" transform="matrix(1,0,0,1,0.0740000000000407,0.07400000000001228)"><svg viewBox="0 0 342.85155851775386 342.85155851775386" height="342.85155851775386" width="342.85155851775386"><g><svg></svg></g><g><svg viewBox="0 0 342.85155851775386 342.85155851775386" height="342.85155851775386" width="342.85155851775386"><g><path d="M0 171.426c0-94.676 76.75-171.426 171.426-171.426 94.676 0 171.426 76.75 171.426 171.426 0 94.676-76.75 171.426-171.426 171.426-94.676 0-171.426-76.75-171.426-171.426zM171.426 338.093c92.048 0 166.668-74.62 166.667-166.667 0-92.048-74.62-166.668-166.667-166.668-92.048 0-166.668 74.62-166.668 166.668 0 92.048 74.62 166.668 166.668 166.667z" data-fill-palette-color="tertiary" fill="#00bfa6" stroke="transparent"></path><ellipse rx="164.56874808852186" ry="164.56874808852186" cx="171.42577925887693" cy="171.42577925887693" fill="#00bfa6" stroke="transparent" stroke-width="0" fill-opacity="1" data-fill-palette-color="tertiary"></ellipse></g><g transform="matrix(1,0,0,1,64.84655864529837,102.35832886602662)"><svg viewBox="0 0 213.1584412271571 138.1349007857006" height="138.1349007857006" width="213.1584412271571"><g><svg viewBox="0 0 213.1584412271571 138.1349007857006" height="138.1349007857006" width="213.1584412271571"><g><svg viewBox="0 0 213.1584412271571 138.1349007857006" height="138.1349007857006" width="213.1584412271571"><g transform="matrix(1,0,0,1,0,85.37291038293897)"><svg viewBox="0 0 213.1584412271571 52.761990402761654" height="52.761990402761654" width="213.1584412271571"><g id="textblocktransform"><svg viewBox="0 0 213.1584412271571 52.761990402761654" height="52.761990402761654" width="213.1584412271571" id="textblock"><g><svg viewBox="0 0 213.1584412271571 52.761990402761654" height="52.761990402761654" width="213.1584412271571"><g transform="matrix(1,0,0,1,0,0)"><svg width="213.1584412271571" viewBox="0.15 -36.5 212.07 52.5" height="52.761990402761654" data-palette-color="#ffffff"><path d="M14.5-28.65L14.5-28.65Q10.55-23.7 8.8-18.75L8.8-18.75 8.85-18.75Q15.8-18.75 16.82-18.73 17.85-18.7 17.95-18.8 18.05-18.9 18.1-19.05L18.1-19.05Q17.25-25.2 16.75-27.43 16.25-29.65 15.75-29.65 15.25-29.65 14.5-28.65ZM10.05-5.1L10.05-5.1 11.15-5.3Q11.65-5.3 11.65-4.75L11.65-4.75Q11.65-3 10.95-1.8 10.25-0.6 9.2-0.1L9.2-0.1Q7.5 0.75 6.3 0.75L6.3 0.75Q4 0.75 2.85-0.98 1.7-2.7 1.7-6.18 1.7-9.65 3.6-15.2L3.6-15.2 0.7-15.2Q0.15-15.2 0.15-15.75 0.15-16.3 1-17.53 1.85-18.75 2.8-18.75L2.8-18.75 5.05-18.75Q8.6-26.65 13.4-32.4L13.4-32.4Q14.65-33.9 16.48-35.2 18.3-36.5 19.3-36.5 20.3-36.5 20.8-35.6L20.8-35.6Q22.1-33.5 23.85-20.25L23.85-20.25Q24.45-14.55 25.93-8.47 27.4-2.4 28.65-1.4L28.65-1.4Q28.95-1.2 28.95-0.9L28.95-0.9Q28.95-0.15 26.83 0.5 24.7 1.15 23.58 1.15 22.45 1.15 21.85 0.88 21.25 0.6 21.1 0.3L21.1 0.3Q20.2-1.65 19.3-9L19.3-9 19-11.35Q18.8-13.7 18.6-14.9L18.6-14.9 18.25-15.15 7.8-15.2Q7.2-12.65 7.2-10.75 7.2-8.85 7.33-7.98 7.45-7.1 8.15-6.1 8.85-5.1 10.05-5.1ZM33.45-20.18Q34.55-21.3 36.35-22.08 38.15-22.85 39.8-22.85 41.45-22.85 43.15-22.1L43.15-22.1Q43.35-22.1 43.45-22.2L43.45-22.2Q44.75-23.5 47.25-23.5L47.25-23.5Q47.85-23.5 47.85-22.95L47.85-22.95Q47.85-22.9 47.75-22.5 47.65-22.1 47.5-21.33 47.35-20.55 47.25-19.45L47.25-19.45Q46.9-16.6 46.87-13.15 46.85-9.7 46.85-6.25L46.85-6.25 47 4.25Q47 9.3 44.4 12.65L44.4 12.65Q43.35 14 41.22 15 39.1 16 36.25 16L36.25 16Q35.6 15.6 35.6 15.2 35.6 14.8 36.15 14.55L36.15 14.55Q39.3 13.1 40.65 7.68 42 2.25 42-8.8L42-8.8 41.9-15.8 41.75-19.2Q41.75-19.65 40.35-19.85L40.35-19.85Q38.55-19.85 37.32-18.68 36.1-17.5 35.65-15.6L35.65-15.6Q34.85-12.55 34.85-10.33 34.85-8.1 35.57-6.4 36.3-4.7 38.1-4.7L38.1-4.7Q38.6-4.7 39.02-4.9 39.45-5.1 39.6-5.1L39.6-5.1Q40.1-5.1 40.1-4.1 40.1-3.1 39.95-2.48 39.8-1.85 39.35-1.1L39.35-1.1Q38.35 0.55 35.45 0.55L35.45 0.55Q32.55 0.55 31.3-1.55L31.3-1.55Q30-3.7 29.8-5.4L29.8-5.4Q29.5-7.95 29.5-8.75 29.5-9.55 29.52-10.03 29.55-10.5 29.77-11.93 30-13.35 30.37-14.63 30.75-15.9 31.55-17.48 32.35-19.05 33.45-20.18ZM65.59-17.2L65.34-13.4 65.55-11.65Q65.55-10.7 63.75-10.7L63.75-10.7Q60.1-10.7 60.1-13.45L60.1-13.45Q60.1-14.1 60.45-15.25 60.8-16.4 60.8-17.25 60.8-18.1 60.3-18.73 59.8-19.35 58.85-19.35 57.9-19.35 57.22-18.68 56.55-18 56.4-17.3L56.4-17.3 56.2-16.6Q55.9-15.05 55.9-11.43 55.9-7.8 56-5.73 56.1-3.65 56.2-2.88 56.3-2.1 56.3-1.95L56.3-1.95Q56.3-0.7 54.75 0.08 53.2 0.85 51.65 0.85 50.1 0.85 50.1 0.2L50.1 0.2 50.35-1.35Q51.05-5.7 51.05-12.7 51.05-19.7 50.55-22.2L50.55-22.2Q50.55-22.8 51.6-22.8L51.6-22.8Q54.3-22.8 55.2-20.95L55.2-20.95Q55.25-20.75 55.37-20.75 55.5-20.75 56.05-21.2L56.05-21.2Q57.7-22.55 59.95-22.55L59.95-22.55Q61.35-22.55 62.75-22L62.75-22Q65.59-20.85 65.59-17.2L65.59-17.2ZM72.99-26.75L72.99-26.75 71.79-26.8Q70.44-26.8 70.04-26.15L70.04-26.15Q69.94-26 69.79-26L69.79-26Q69.14-26 69.14-28.23 69.14-30.45 69.82-31.05 70.49-31.65 72.17-31.65 73.84-31.65 74.44-31.08 75.04-30.5 75.04-29.15 75.04-27.8 74.59-27.28 74.14-26.75 72.99-26.75ZM68.99-1.5L68.99-1.5 69.54-13.15Q69.54-17.3 68.59-18.8L68.59-18.8Q68.29-19.3 67.89-19.55L67.89-19.55Q67.59-19.65 67.59-19.95L67.59-19.95Q67.59-20.85 70.14-21.7 72.69-22.55 73.87-22.55 75.04-22.55 75.09-21.95L75.09-21.95Q75.09-20.95 74.82-16.28 74.54-11.6 74.54-6.45 74.54-1.3 75.14-0.05L75.14-0.05Q75.29 0.2 75.29 0.45L75.29 0.45Q75.29 1.1 73.39 1.1 71.49 1.1 69.49 0.1L69.49 0.1Q68.99-0.15 68.99-1.5ZM99.94-11.45L99.94-11.45Q100.89-11.45 100.89-9.05 100.89-6.65 99.99-4.75 99.09-2.85 97.81-1.8 96.54-0.75 94.94-0.1L94.94-0.1Q89.59 2.25 84.94-0.2L84.94-0.2Q82.59-1.45 81.34-3.18 80.09-4.9 79.34-7.3L79.34-7.3Q78.19-10.9 78.19-14.85 78.19-18.8 78.94-22.25 79.69-25.7 81.24-28.83 82.79-31.95 85.64-33.85 88.49-35.75 92.24-35.75L92.24-35.75Q93.84-35.75 95.56-35.23 97.29-34.7 98.39-33.93 99.49-33.15 100.34-31.55 101.19-29.95 101.19-27.8L101.19-27.8Q101.19-25.5 100.09-23.65L100.09-23.65Q99.59-22.8 98.49-22.13 97.39-21.45 95.89-21.45L95.89-21.45Q93.59-21.45 92.64-23.5L92.64-23.5Q92.24-24.3 92.24-25.25 92.24-26.2 92.89-26.35L92.89-26.35Q93.59-26.55 94.19-27.45 94.79-28.35 94.79-29.55L94.79-29.55Q94.79-30.5 94.29-31.2L94.29-31.2Q93.34-32.45 91.54-32.45 89.74-32.45 88.27-30.8 86.79-29.15 86.04-26.65L86.04-26.65Q84.54-21.65 84.54-17.45L84.54-17.45Q84.54-13.25 85.69-10.7L85.69-10.7Q87.09-7.55 89.24-6.5L89.24-6.5Q90.59-5.85 92.34-5.85L92.34-5.85Q95.29-5.85 97.64-8.5L97.64-8.5Q98.64-9.55 99.29-11L99.29-11Q99.54-11.45 99.94-11.45ZM108.54-18.85L108.54-18.85Q107.24-18.8 106.66-18.78 106.09-18.75 106.09-19.05 106.09-19.35 106.39-19.65L106.39-19.65Q109.59-22.6 117.19-22.6L117.19-22.6Q119.79-22.6 121.29-22.15L121.29-22.15 121.79-22Q122.39-21.75 122.39-21.45L122.39-21.45Q122.39-21.2 122.04-21.05L122.04-21.05Q120.69-20.65 119.44-19.78 118.19-18.9 118.19-18.55L118.19-18.55 118.49-18.2Q120.09-17.3 120.96-15.35 121.84-13.4 121.94-11.9L121.94-11.9 122.04-10.35Q122.04-5.4 119.29-2.2 116.54 1 111.79 1L111.79 1Q109.39 1 107.64 0.15 105.89-0.7 105.06-1.78 104.24-2.85 103.74-4.2L103.74-4.2Q103.14-6.05 103.14-8.03 103.14-10 103.81-12 104.49-14 105.36-14.95 106.24-15.9 107.34-16.5L107.34-16.5Q108.74-17.25 109.59-17.25 110.44-17.25 110.44-16.9L110.44-16.9 110.14-16.4Q109.04-15.1 108.56-13 108.09-10.9 108.09-9.28 108.09-7.65 108.49-6.05 108.89-4.45 109.39-3.68 109.89-2.9 110.54-2.5L110.54-2.5Q111.49-1.9 112.54-1.9 113.59-1.9 114.59-2.73 115.59-3.55 116.04-4.9L116.04-4.9Q116.94-7.4 116.94-10.05L116.94-10.05Q116.94-14.25 114.81-16.55 112.69-18.85 108.54-18.85ZM124.48 0.35L124.48 0.35Q125.39-5.05 125.39-12.6 125.39-20.15 124.94-22.4L124.94-22.4Q124.94-23.05 126.44-23.05L126.44-23.05Q128.74-23.05 129.49-21.3L129.49-21.3Q129.53-21.15 129.74-21.15 129.94-21.15 130.03-21.25L130.03-21.25Q131.59-22.85 134.84-22.85 138.09-22.85 139.99-21.2 141.88-19.55 141.88-16.4L141.88-16.4Q141.88-14.5 141.56-11 141.24-7.5 141.24-5.8L141.24-5.8Q141.24-1.75 142.59 0.05L142.59 0.05Q142.78 0.3 142.78 0.55L142.78 0.55Q142.78 1.2 141.38 1.2L141.38 1.2Q135.19 1.2 135.19-4.3L135.19-4.3Q135.19-6.4 136.13-10.15 137.09-13.9 137.09-15.85L137.09-15.85Q137.09-19.85 133.78-19.85L133.78-19.85Q132.19-19.85 131.36-18.9 130.53-17.95 130.44-16.73 130.34-15.5 130.34-12.1L130.34-12.1Q130.34-6.9 130.69-3.05L130.69-3.05 130.78-1.95Q130.78-0.55 128.96 0.23 127.14 1 125.81 1 124.48 1 124.48 0.35ZM144.43 0.35L144.43 0.35Q145.33-5.05 145.33-12.6 145.33-20.15 144.88-22.4L144.88-22.4Q144.88-23.05 146.38-23.05L146.38-23.05Q148.68-23.05 149.43-21.3L149.43-21.3Q149.48-21.15 149.68-21.15 149.88-21.15 149.98-21.25L149.98-21.25Q151.53-22.85 154.78-22.85 158.03-22.85 159.93-21.2 161.83-19.55 161.83-16.4L161.83-16.4Q161.83-14.5 161.51-11 161.18-7.5 161.18-5.8L161.18-5.8Q161.18-1.75 162.53 0.05L162.53 0.05Q162.73 0.3 162.73 0.55L162.73 0.55Q162.73 1.2 161.33 1.2L161.33 1.2Q155.13 1.2 155.13-4.3L155.13-4.3Q155.13-6.4 156.08-10.15 157.03-13.9 157.03-15.85L157.03-15.85Q157.03-19.85 153.73-19.85L153.73-19.85Q152.13-19.85 151.31-18.9 150.48-17.95 150.38-16.73 150.28-15.5 150.28-12.1L150.28-12.1Q150.28-6.9 150.63-3.05L150.63-3.05 150.73-1.95Q150.73-0.55 148.91 0.23 147.08 1 145.76 1 144.43 1 144.43 0.35ZM169.13-12.7L169.13-12.7 169.18-11.45Q169.18-11.15 169.58-11.15L169.58-11.15Q171.18-11.3 172.38-11.98 173.58-12.65 174.18-13.5L174.18-13.5Q175.38-15.35 175.48-16.7L175.48-16.7 175.53-17.3Q175.53-20 173.38-20L173.38-20Q171.78-20 170.78-18.6L170.78-18.6Q169.13-16.4 169.13-12.7ZM180.03-6.05L180.03-6.05Q180.03-4.15 179.25-2.73 178.48-1.3 177.5-0.63 176.53 0.05 175.23 0.45L175.23 0.45Q173.58 0.95 172.08 0.95L172.08 0.95Q167.88 0.95 165.88-2.2 163.88-5.35 163.88-10.23 163.88-15.1 166.35-18.9 168.83-22.7 173.78-22.7L173.78-22.7Q178.28-22.7 179.88-19.55L179.88-19.55Q180.53-18.35 180.53-17.28 180.53-16.2 180.43-15.58 180.33-14.95 179.73-13.7 179.13-12.45 178.13-11.45 177.13-10.45 174.98-9.55 172.83-8.65 169.93-8.35L169.93-8.35Q169.53-8.35 169.53-8L169.53-8Q169.53-7.55 169.85-6.68 170.18-5.8 170.58-5.2L170.58-5.2Q171.68-3.8 173.83-3.8L173.83-3.8Q175.98-3.8 177.48-5.2L177.48-5.2Q178.28-5.95 178.78-7.05L178.78-7.05Q178.98-7.45 179.31-7.45 179.63-7.45 179.83-6.9 180.03-6.35 180.03-6.05ZM199.13-5.75L199.13-5.75Q199.13-2.9 196.85-1.03 194.58 0.85 191.43 0.85L191.43 0.85Q186.83 0.85 184.68-1.93 182.53-4.7 182.53-9.45L182.53-9.45Q182.53-14.5 184.78-18.4L184.78-18.4Q185.88-20.4 187.93-21.55 189.98-22.7 192.73-22.7L192.73-22.7Q196.88-22.7 198.58-19.9L198.58-19.9Q199.28-18.75 199.28-17.2L199.28-17.2Q199.28-14.8 197.28-13.6L197.28-13.6Q196.48-13.15 195.8-13.15 195.13-13.15 194.7-13.23 194.28-13.3 193.58-13.9 192.88-14.5 192.88-15.55L192.88-15.55Q192.93-16.1 193.73-16.45L193.73-16.45Q194.48-16.9 194.48-18.05L194.48-18.05Q194.48-20 192.08-20L192.08-20Q191.48-20 190.65-19.48 189.83-18.95 189.28-18.13 188.73-17.3 188.25-15.53 187.78-13.75 187.78-12.13 187.78-10.5 187.9-9.68 188.03-8.85 188.45-7.43 188.88-6 190.05-5.1 191.23-4.2 192.98-4.2L192.98-4.2Q195.08-4.2 196.68-5.95L196.68-5.95Q197.33-6.65 197.73-7.65L197.73-7.65Q197.93-8.05 198.23-8.05L198.23-8.05Q198.68-8.05 198.9-7.23 199.13-6.4 199.13-5.75ZM201.03-19.5L201.03-19.5 201.18-21.5Q201.22-21.95 201.88-21.95L201.88-21.95 203.63-21.95 203.43-25.95 203.43-26.15Q203.43-27.3 205.18-28.35 206.93-29.4 208.38-29.4L208.38-29.4Q208.83-29.4 208.83-29L208.83-29 208.83-28.95Q208.63-27.6 208.43-22L208.43-22Q210.63-22 211.22-22.1 211.83-22.2 211.88-22.2L211.88-22.2Q212.22-22.2 212.22-21.6 212.22-21 211.68-20.08 211.13-19.15 210.47-19.1L210.47-19.1 208.38-19.1Q208.33-17.4 208.33-13.38 208.33-9.35 208.4-6.75 208.47-4.15 208.58-2.83 208.68-1.5 208.8-0.7 208.93 0.1 209 0.45 209.08 0.8 209.08 0.9L209.08 0.9Q209.08 1.4 208.43 1.45L208.43 1.45Q206.47 1.45 204.55 0.9 202.63 0.35 202.63-1L202.63-1Q203.68-9.4 203.68-19.05L203.68-19.05Q202.33-19.05 201.63-18.95L201.63-18.95 201.58-18.95Q201.13-18.95 201.03-19.5Z" opacity="1" transform="matrix(1,0,0,1,0,0)" fill="#ffffff" class="wordmark-text-0" data-fill-palette-color="quaternary" id="text-0"></path></svg></g></svg></g></svg></g></svg></g><g transform="matrix(1,0,0,1,53.61840081540439,0)"><svg viewBox="0 0 105.92163959634833 72.91707073661661" height="72.91707073661661" width="105.92163959634833"><g><svg xmlns="http://www.w3.org/2000/svg" xmlns:xlink="http://www.w3.org/1999/xlink" version="1.1" x="0" y="0" viewBox="5.450000000000001 19.15 89.7 61.75000000000001" enable-background="new 0 0 100 100" xml:space="preserve" height="72.91707073661661" width="105.92163959634833" class="icon-icon-0" data-fill-palette-color="quaternary" id="icon-0"><g fill="#ffffff" data-fill-palette-color="quaternary"><path d="M84.6 33.6C83.8 32.5 82.3 32.1 81.1 32.9S79.6 35.2 80.4 36.4L87.8 47.6 79.5 47.7C79.2 47.6 79 47.5 78.7 47.5H76.2C51.1 47.5 27.5 37.7 9.7 19.9 8.7 18.9 7.1 18.9 6.2 19.9 5.2 20.9 5.2 22.5 6.2 23.4 19.6 36.8 36.2 45.9 54.3 50 36.2 54.1 19.6 63.2 6.2 76.7 5.2 77.7 5.2 79.3 6.2 80.2 6.7 80.7 7.3 80.9 8 80.9S9.3 80.7 9.8 80.2C27.6 62.4 51.2 52.6 76.3 52.6L87.9 52.5 80.5 63.6C79.7 64.7 80 66.3 81.2 67.1 81.6 67.4 82.1 67.5 82.6 67.5 83.4 67.5 84.2 67.1 84.7 66.4L94.7 51.4C95.3 50.6 95.3 49.5 94.7 48.6z" fill="#ffffff" data-fill-palette-color="quaternary"></path></g></svg></g></svg></g><g></g></svg></g></svg></g></svg></g></svg></g><defs></defs></svg><rect width="342.85155851775386" height="342.85155851775386" fill="none" stroke="none" visibility="hidden"></rect></g></svg></g></svg>